<?xml version="1.0" encoding="UTF-8"?>
<svg xmlns="http://www.w3.org/2000/svg" xmlns:xlink="http://www.w3.org/1999/xlink" width="221px" height="35px" viewBox="0 0 220 35" version="1.1">
<g id="surface1">
<path style=" stroke:none;fill-rule:nonzero;fill:rgb(6.666667%,22.745098%,40.784314%);fill-opacity:1;" d="M 5.394531 28 L 0.679688 28 L 7.863281 7.152344 L 13.527344 7.152344 L 20.699219 28 L 15.988281 28 L 10.777344 11.914062 L 10.613281 11.914062 Z M 5.097656 19.804688 L 16.230469 19.804688 L 16.230469 23.246094 L 5.097656 23.246094 Z M 23.058594 28 L 23.058594 7.152344 L 31.390625 7.152344 C 32.917969 7.152344 34.195312 7.378906 35.21875 7.832031 C 36.242188 8.289062 37.007812 8.917969 37.523438 9.726562 C 38.039062 10.527344 38.296875 11.449219 38.296875 12.496094 C 38.296875 13.308594 38.132812 14.027344 37.808594 14.644531 C 37.484375 15.253906 37.035156 15.757812 36.46875 16.152344 C 35.90625 16.539062 35.261719 16.8125 34.539062 16.976562 L 34.539062 17.179688 C 35.328125 17.210938 36.070312 17.4375 36.761719 17.851562 C 37.460938 18.265625 38.023438 18.84375 38.457031 19.589844 C 38.890625 20.332031 39.109375 21.214844 39.109375 22.238281 C 39.109375 23.34375 38.835938 24.332031 38.285156 25.199219 C 37.742188 26.0625 36.941406 26.746094 35.878906 27.246094 C 34.816406 27.75 33.503906 28 31.949219 28 Z M 27.457031 24.394531 L 31.042969 24.394531 C 32.269531 24.394531 33.164062 24.164062 33.726562 23.695312 C 34.289062 23.21875 34.566406 22.585938 34.566406 21.800781 C 34.566406 21.222656 34.429688 20.714844 34.152344 20.273438 C 33.875 19.832031 33.476562 19.484375 32.964844 19.234375 C 32.457031 18.984375 31.847656 18.859375 31.144531 18.859375 L 27.457031 18.859375 Z M 27.457031 15.875 L 30.71875 15.875 C 31.320312 15.875 31.855469 15.769531 32.324219 15.558594 C 32.796875 15.34375 33.171875 15.039062 33.441406 14.644531 C 33.71875 14.25 33.855469 13.777344 33.855469 13.230469 C 33.855469 12.476562 33.589844 11.867188 33.054688 11.40625 C 32.527344 10.945312 31.773438 10.714844 30.800781 10.714844 L 27.457031 10.714844 Z M 41.828125 28 L 41.828125 7.152344 L 50.035156 7.152344 C 51.605469 7.152344 52.945312 7.433594 54.054688 7.996094 C 55.171875 8.554688 56.023438 9.34375 56.605469 10.367188 C 57.195312 11.386719 57.488281 12.585938 57.488281 13.960938 C 57.488281 15.347656 57.191406 16.539062 56.59375 17.535156 C 56 18.527344 55.136719 19.285156 54.003906 19.816406 C 52.882812 20.34375 51.519531 20.609375 49.921875 20.609375 L 44.425781 20.609375 L 44.425781 17.066406 L 49.210938 17.066406 C 50.050781 17.066406 50.75 16.953125 51.304688 16.71875 C 51.859375 16.488281 52.273438 16.144531 52.542969 15.683594 C 52.820312 15.222656 52.960938 14.648438 52.960938 13.960938 C 52.960938 13.269531 52.820312 12.6875 52.542969 12.210938 C 52.273438 11.734375 51.855469 11.375 51.292969 11.132812 C 50.738281 10.878906 50.039062 10.753906 49.191406 10.753906 L 46.226562 10.753906 L 46.226562 28 Z M 53.0625 18.511719 L 58.230469 28 L 53.375 28 L 48.316406 18.511719 Z M 79.570312 17.574219 C 79.570312 19.847656 79.140625 21.785156 78.28125 23.378906 C 77.425781 24.972656 76.261719 26.191406 74.785156 27.03125 C 73.316406 27.867188 71.664062 28.285156 69.828125 28.285156 C 67.980469 28.285156 66.320312 27.863281 64.851562 27.023438 C 63.382812 26.179688 62.222656 24.964844 61.367188 23.367188 C 60.515625 21.773438 60.089844 19.84375 60.089844 17.574219 C 60.089844 15.300781 60.515625 13.367188 61.367188 11.773438 C 62.222656 10.179688 63.382812 8.964844 64.851562 8.128906 C 66.320312 7.289062 67.980469 6.867188 69.828125 6.867188 C 71.664062 6.867188 73.316406 7.289062 74.785156 8.128906 C 76.261719 8.964844 77.425781 10.179688 78.28125 11.773438 C 79.140625 13.367188 79.570312 15.300781 79.570312 17.574219 Z M 75.109375 17.574219 C 75.109375 16.101562 74.890625 14.859375 74.449219 13.851562 C 74.015625 12.839844 73.402344 12.070312 72.613281 11.550781 C 71.820312 11.027344 70.890625 10.765625 69.828125 10.765625 C 68.765625 10.765625 67.839844 11.027344 67.046875 11.550781 C 66.253906 12.070312 65.636719 12.839844 65.199219 13.851562 C 64.765625 14.859375 64.546875 16.101562 64.546875 17.574219 C 64.546875 19.046875 64.765625 20.289062 65.199219 21.300781 C 65.636719 22.3125 66.253906 23.078125 67.046875 23.601562 C 67.839844 24.125 68.765625 24.386719 69.828125 24.386719 C 70.890625 24.386719 71.820312 24.125 72.613281 23.601562 C 73.402344 23.078125 74.015625 22.3125 74.449219 21.300781 C 74.890625 20.289062 75.109375 19.046875 75.109375 17.574219 Z M 85.097656 28 L 80.382812 28 L 87.5625 7.152344 L 93.230469 7.152344 L 100.402344 28 L 95.691406 28 L 90.480469 11.914062 L 90.316406 11.914062 Z M 84.800781 19.804688 L 95.933594 19.804688 L 95.933594 23.246094 L 84.800781 23.246094 Z M 110.136719 28 L 102.765625 28 L 102.765625 7.152344 L 110.199219 7.152344 C 112.289062 7.152344 114.09375 7.570312 115.601562 8.402344 C 117.113281 9.230469 118.273438 10.421875 119.085938 11.976562 C 119.90625 13.53125 120.316406 15.390625 120.316406 17.554688 C 120.316406 19.726562 119.90625 21.59375 119.085938 23.15625 C 118.273438 24.714844 117.105469 25.914062 115.582031 26.746094 C 114.066406 27.582031 112.25 28 110.136719 28 Z M 107.160156 24.222656 L 109.953125 24.222656 C 111.253906 24.222656 112.347656 23.992188 113.234375 23.53125 C 114.128906 23.0625 114.800781 22.339844 115.246094 21.363281 C 115.699219 20.378906 115.925781 19.109375 115.925781 17.554688 C 115.925781 16.015625 115.699219 14.757812 115.246094 13.777344 C 114.800781 12.800781 114.132812 12.082031 113.246094 11.621094 C 112.359375 11.160156 111.265625 10.929688 109.964844 10.929688 L 107.160156 10.929688 Z M 107.160156 24.222656 "/>
<path style=" stroke:none;fill-rule:nonzero;fill:rgb(22.352941%,43.137255%,69.019608%);fill-opacity:1;" d="M 148.414062 7.152344 L 148.414062 28 L 144.613281 28 L 135.566406 14.878906 L 135.414062 14.878906 L 135.414062 28 L 131.015625 28 L 131.015625 7.152344 L 134.875 7.152344 L 143.851562 20.261719 L 144.035156 20.261719 L 144.035156 7.152344 Z M 157.160156 7.152344 L 157.160156 28 L 152.761719 28 L 152.761719 7.152344 Z M 178.890625 7.152344 L 178.890625 28 L 175.09375 28 L 166.042969 14.878906 L 165.890625 14.878906 L 165.890625 28 L 161.492188 28 L 161.492188 7.152344 L 165.351562 7.152344 L 174.332031 20.261719 L 174.515625 20.261719 L 174.515625 7.152344 Z M 203.851562 28 L 199.140625 28 L 206.320312 7.152344 L 211.988281 7.152344 L 219.160156 28 L 214.445312 28 L 209.234375 11.914062 L 209.074219 11.914062 Z M 203.558594 19.804688 L 214.691406 19.804688 L 214.691406 23.246094 L 203.558594 23.246094 Z M 203.558594 19.804688 "/>
<path style=" stroke:none;fill-rule:nonzero;fill:rgb(100%,52.54902%,38.823529%);fill-opacity:1;" d="M 183.101562 15.496094 L 185.917969 16.730469 L 184.613281 18.082031 Z M 183.101562 15.496094 "/>
<path style=" stroke:none;fill-rule:nonzero;fill:rgb(100%,52.54902%,38.823529%);fill-opacity:1;" d="M 191.164062 15.550781 L 187.453125 16.628906 L 188.699219 18.359375 Z M 191.164062 15.550781 "/>
<path style=" stroke:none;fill-rule:nonzero;fill:rgb(100%,52.54902%,38.823529%);fill-opacity:1;" d="M 201.75 10.890625 L 201.75 7.019531 L 196.878906 7.019531 C 196.84375 7.015625 196.804688 7.027344 196.777344 7.050781 C 196.746094 7.074219 196.722656 7.105469 196.710938 7.140625 C 196.699219 7.175781 196.699219 7.214844 196.710938 7.25 C 196.726562 7.285156 196.75 7.316406 196.78125 7.339844 Z M 201.75 10.890625 "/>
<path style=" stroke:none;fill-rule:nonzero;fill:rgb(100%,52.54902%,38.823529%);fill-opacity:1;" d="M 199.324219 3.5 L 196.449219 3.5 L 196.449219 7.019531 C 196.453125 7.054688 196.464844 7.09375 196.488281 7.121094 C 196.507812 7.152344 196.539062 7.175781 196.574219 7.1875 C 196.613281 7.199219 196.648438 7.199219 196.6875 7.1875 C 196.722656 7.175781 196.753906 7.152344 196.773438 7.121094 Z M 199.324219 3.5 "/>
<path style=" stroke:none;fill-rule:nonzero;fill:rgb(100%,52.54902%,38.823529%);fill-opacity:1;" d="M 182.316406 7.019531 L 182.316406 13.3125 L 192.488281 11.886719 L 192.523438 15.238281 C 192.523438 15.238281 192.550781 15.898438 192.550781 16.160156 C 192.546875 17.421875 192.101562 18.640625 191.289062 19.597656 C 190.480469 20.558594 189.355469 21.195312 188.125 21.398438 C 186.890625 21.597656 185.625 21.351562 184.554688 20.699219 C 183.484375 20.046875 182.679688 19.03125 182.285156 17.835938 C 182.285156 19.128906 182.335938 23.050781 182.335938 23.050781 C 182.335938 23.050781 182.335938 23.0625 182.335938 23.070312 C 182.394531 23.761719 182.597656 24.4375 182.921875 25.050781 C 183.25 25.664062 183.699219 26.203125 184.242188 26.632812 C 185.613281 27.769531 187.480469 28.335938 189.835938 28.335938 C 191.878906 28.335938 193.558594 27.699219 194.867188 26.421875 C 196.175781 25.144531 196.828125 23.433594 196.828125 21.285156 L 196.828125 7.25 C 196.828125 7.183594 196.804688 7.121094 196.757812 7.074219 C 196.710938 7.03125 196.648438 7.003906 196.585938 7.003906 Z M 182.316406 7.019531 "/>
</g>
</svg>
